# xmcd
#
# Track frame offsets:
#	150
#	17120
#	40148
#	53183
#	67478
#	86413
#	103993
#	120166
#	136892
#	151024
#	165784
#	184845
#	204846
#	218575
#	237103
#	265540
#
# Disc length: 3555 seconds
#
# Revision: 1
# Processed by: cddbd v1.5.2PL0 Copyright (c) Steve Scherf et al.
# Submitted via: audiograbber 1.83.01
#
DISCID=c80de110
DTITLE=Chartbuster - CB90049
DYEAR=1900
DGENRE=Karaoke
TTITLE0=Patty Loveless - Blame It On Your Heart
TTITLE1=Patty Loveless - How Can I Help You Say Goodbye
TTITLE2=Patty Loveless - I Try To Think About Elvis
TTITLE3=Patty Loveless - Here I Am
TTITLE4=Patty Loveless - You Don't Even Know Who I Am
TTITLE5=Patty Loveless - Halfway Down
TTITLE6=Patty Loveless - You Can Feel Bad
TTITLE7=Patty Loveless - A Thousand Times A Day
TTITLE8=Patty Loveless - Can't Get Enough
TTITLE9=Patty Loveless - High On Love
TTITLE10=Patty Loveless - Like Water Into Wine
TTITLE11=Patty Loveless - Lonely Too Long
TTITLE12=Patty Loveless - She Drew A Broken Heart
TTITLE13=Patty Loveless - Trouble With The Truth, The
TTITLE14=Patty Loveless - You Don't Seem To Miss Me
TTITLE15=DATA - DATA
EXTD=
EXTT0=
EXTT1=
EXTT2=
EXTT3=
EXTT4=
EXTT5=
EXTT6=
EXTT7=
EXTT8=
EXTT9=
EXTT10=
EXTT11=
EXTT12=
EXTT13=
EXTT14=
EXTT15=
PLAYORDER=
